<svg id="Layer_1" viewBox="0 0 512 512" xmlns="http://www.w3.org/2000/svg" data-name="Layer 1"><path d="m438.784 246.03h-1.445c13.331-14.183 20.3-35.822 20.3-56.689a56.7 56.7 0 1 0 -113.4 0c0 16.281 4.752 33.709 12.71 46.62a64.406 64.406 0 0 0 7.63 10.069h-1.479a62.511 62.511 0 0 0 -37.021 12.03 89.879 89.879 0 0 0 -14.884-1.258h-16.665c9.976-9.159 18.321-21.943 24.146-37.561 13.4-5.192 21.124-23.911 22.445-37.2 1.285-12.924-3.1-22.24-11.714-24.913l-.2-.06c8.324-41.984-.272-55.649-18.889-64.025-14.548-15.443-35.203-24.978-54.318-24.978-22.16 0-45.788 12.558-60.194 31.994-12.166 16.413-16.7 36.347-13.181 57.062-8.643 2.677-13.039 11.987-11.758 24.9 1.316 13.283 9.031 32 22.431 37.2 5.838 15.622 14.194 28.41 24.177 37.571h-16.667a89.965 89.965 0 0 0 -14.909 1.261 62.5 62.5 0 0 0 -37.024-12.033h-1.454a64.406 64.406 0 0 0 7.63-10.069c7.958-12.911 12.709-30.338 12.709-46.62a56.715 56.715 0 1 0 -113.429 0c0 20.867 6.974 42.506 20.312 56.689h-1.427c-33.2 0-60.216 25.347-60.216 56.5v66.192a8 8 0 0 0 8 8h95.61v59.211a8 8 0 0 0 8 8h262.752a8 8 0 0 0 8-8v-59.199h95.638a8 8 0 0 0 8-8v-66.192c0-31.155-27.013-56.502-60.216-56.502zm-68.215-18.465c-6.468-10.493-10.33-24.782-10.33-38.224a40.7 40.7 0 1 1 81.4 0c0 21.917-11.05 56.689-40.7 56.689-12.599 0-22.817-6.213-30.37-18.465zm-107.256 45.235a2.743 2.743 0 0 1 2.419 1.181 19.7 19.7 0 0 1 .268 8.419 9.384 9.384 0 0 1 -3.683 4.157 8 8 0 0 0 -3.98 8.088l15.83 111.3-18.167 18.555-18.171-18.557 15.83-111.3a8 8 0 0 0 -3.98-8.088 9.369 9.369 0 0 1 -3.679-4.155 19.529 19.529 0 0 1 .257-8.395 2.712 2.712 0 0 1 2.434-1.2zm-56.313-62.783a8 8 0 0 0 -6.765-5.417c-2.981-.307-7.689-5.091-10.918-13.639-3.743-9.91-2.8-17.091-1.743-18.616a2.046 2.046 0 0 1 .73-.045 8 8 0 0 0 12.216-8.9c-7.631-25.11.212-43.124 8.136-53.814 11.319-15.265 30.344-25.521 47.344-25.521 15.023 0 32.151 8.241 43.634 21a7.992 7.992 0 0 0 2.838 2.018c10.441 4.4 20.3 8.56 8.873 56.806a8 8 0 0 0 12.325 8.431 1.865 1.865 0 0 1 .744.03c1.063 1.544 1.993 8.748-1.765 18.67-3.186 8.411-7.805 13.162-10.779 13.572a8 8 0 0 0 -6.905 5.437c-9.49 28.412-28.71 46.771-48.965 46.771s-39.479-18.362-49-46.783zm-136.669-20.676a40.715 40.715 0 1 1 81.429 0c0 13.442-3.862 27.731-10.329 38.224-7.553 12.252-17.771 18.465-30.371 18.465-29.672 0-40.729-34.772-40.729-56.689zm-41.331 171.383v-58.192c0-22.333 19.835-40.5 44.216-40.5h75.659a47.362 47.362 0 0 1 15.411 2.572c-28.187 12.74-47.676 39.745-47.676 70.927v25.195zm103.61-25.195c0-34.588 30.593-62.727 68.2-62.727h29.368c-.973 5.743-.473 12.425 1.229 16.164a26.082 26.082 0 0 0 5.753 8.07l-15.727 110.564a8 8 0 0 0 2.2 6.723l13.333 13.617h-43.948v-77.586a8 8 0 0 0 -16 0v77.581h-44.408zm246.752 92.406h-44.38v-77.581a8 8 0 0 0 -16 0v77.581h-43.952l13.333-13.617a8 8 0 0 0 2.2-6.723l-15.725-110.56a26.142 26.142 0 0 0 5.76-8.083c1.689-3.712 2.187-10.391 1.209-16.15h29.381c37.589 0 68.17 28.139 68.17 62.727zm103.638-67.211h-87.638v-25.195c0-31.185-19.486-58.191-47.667-70.93a47.359 47.359 0 0 1 15.4-2.569h75.687c24.381 0 44.216 18.169 44.216 40.5z"/></svg>