<svg id="Icon" enable-background="new 0 0 96 96" height="512" viewBox="0 0 96 96" width="512" xmlns="http://www.w3.org/2000/svg"><path id="Gift_Card" d="m82 16h-68c-5.514 0-10 4.486-10 10v44c0 5.514 4.486 10 10 10h68c5.514 0 10-4.486 10-10v-44c0-5.514-4.486-10-10-10zm6 10v15h-32v-7c0-.632-.299-1.228-.806-1.604-.509-.377-1.164-.492-1.769-.312l-12.475 3.742c-1.344-1.303-3.048-2.237-4.951-2.625v-13.201h46c3.31 0 6.001 2.691 6.001 6zm-38.954 35h-5.692l-3.861-9.653c.523-.345 1.01-.739 1.458-1.173l4.278 1.283zm-15.046-24c3.309 0 6 2.691 6 6s-2.691 6-6 6-6-2.691-6-6 2.691-6 6-6zm-9.283 9.697-8.717 2.615v-12.624l8.717 2.615c-.458 1.145-.717 2.391-.717 3.697s.259 2.552.717 3.697zm-1.946 4.76 4.278-1.283c.448.434.935.828 1.458 1.173l-3.861 9.653h-5.692zm20.512-4.76c.458-1.145.717-2.391.717-3.697s-.259-2.552-.717-3.697l8.717-2.615v12.623zm-29.283-26.697h18v13.202c-1.903.388-3.607 1.322-4.951 2.625l-12.474-3.742c-.604-.181-1.262-.065-1.769.312-.507.375-.806.971-.806 1.603v7h-4v-15c0-3.309 2.691-6 6-6zm-6 50v-25h4v7c0 .632.299 1.228.806 1.604.349.26.769.396 1.194.396.192 0 .386-.027.575-.084l3.301-.99-3.732 9.331c-.247.616-.171 1.314.201 1.864s.991.879 1.655.879h10c.818 0 1.553-.498 1.857-1.257l4.143-10.358v22.615h-18c-3.309 0-6-2.691-6-6zm74 6h-46v-22.615l4.143 10.358c.304.759 1.039 1.257 1.857 1.257h10c.664 0 1.284-.329 1.656-.879s.447-1.248.201-1.864l-3.733-9.331 3.301.99c.189.057.383.084.575.084.425 0 .845-.136 1.194-.396.507-.376.806-.972.806-1.604v-7h32v25c0 3.309-2.691 6-6 6z"/></svg>