<svg id="Layer_1" enable-background="new 0 0 48 48" height="512" viewBox="0 0 48 48" width="512" xmlns="http://www.w3.org/2000/svg"><g fill="rgb(0,0,0)"><path d="m24.6 17.3h-19.2c-.6 0-1 .4-1 1v9.7c0 .6.4 1 1 1h19.2c.6 0 1-.4 1-1v-9.7c0-.5-.4-1-1-1zm-1 9.7h-17.2v-7.7h17.2z"/><path d="m8.5 32h-2c-.6 0-1 .4-1 1s.4 1 1 1h2c.6 0 1-.4 1-1s-.5-1-1-1z"/><path d="m16 32h-2c-.6 0-1 .4-1 1s.4 1 1 1h2c.6 0 1-.4 1-1s-.4-1-1-1z"/><path d="m23.5 32h-2c-.6 0-1 .4-1 1s.4 1 1 1h2c.6 0 1-.4 1-1s-.4-1-1-1z"/><path d="m8.5 36.5h-2c-.6 0-1 .4-1 1s.4 1 1 1h2c.6 0 1-.4 1-1 0-.5-.5-1-1-1z"/><path d="m16 36.5h-2c-.6 0-1 .4-1 1s.4 1 1 1h2c.6 0 1-.4 1-1 0-.5-.4-1-1-1z"/><path d="m23.5 36.5h-2c-.6 0-1 .4-1 1s.4 1 1 1h2c.6 0 1-.4 1-1 0-.5-.4-1-1-1z"/><path d="m8.5 41.1h-2c-.6 0-1 .4-1 1s.4 1 1 1h2c.6 0 1-.4 1-1s-.5-1-1-1z"/><path d="m16 41.1h-2c-.6 0-1 .4-1 1s.4 1 1 1h2c.6 0 1-.4 1-1s-.4-1-1-1z"/><path d="m23.5 41.1h-2c-.6 0-1 .4-1 1s.4 1 1 1h2c.6 0 1-.4 1-1s-.4-1-1-1z"/><path d="m45 22h-15v-11c0-1.7-1.3-3-3-3h-3v-2h3.7c.6 0 1-.4 1-1v-1.7c0-1.8-1.5-3.3-3.3-3.3h-16.4c-1.7 0-3 1.3-3 3v5h-3c-1.7 0-3 1.3-3 3v34c0 1.7 1.3 3 3 3h24c1.7 0 3-1.3 3-3v-1.2h15c1.7 0 3-1.3 3-3v-15.8c0-1.6-1.3-3-3-3zm-21-18.7c0-.7.6-1.3 1.3-1.3s1.3.6 1.3 1.3v.7h-2.6zm-16-.3c0-.6.4-1 1-1h13.3c-.2.4-.3.9-.3 1.3v9.7h-14zm20 39.8v2.2c0 .6-.4 1-1 1h-24c-.6 0-1-.4-1-1v-34c0-.6.4-1 1-1h3v3.1h-.6c-.6 0-1 .4-1 1s.4 1 1 1h19.2c.6 0 1-.4 1-1s-.4-1-1-1h-.6v-3.1h3c.6 0 1 .4 1 1zm10.2-1h-8.2v-17.8h8.2zm7.8-1c0 .6-.4 1-1 1h-4.8v-17.8h4.8c.6 0 1 .4 1 1z"/></g></svg>