<svg clip-rule="evenodd" fill-rule="evenodd" height="512" stroke-linejoin="round" stroke-miterlimit="2" viewBox="0 0 32 32" width="512" xmlns="http://www.w3.org/2000/svg"><g id="Switch-Account"><path d="m10.105 22.3c.21-.482.511-.926.89-1.305.797-.797 1.878-1.245 3.005-1.245h4c1.127 0 2.208.448 3.005 1.245.379.379.68.823.89 1.305.166.379.608.553.988.387.379-.165.553-.608.387-.987-.285-.653-.691-1.253-1.204-1.766-1.078-1.078-2.541-1.684-4.066-1.684-1.3 0-2.7 0-4 0-1.525 0-2.988.606-4.066 1.684-.513.513-.919 1.113-1.204 1.766-.166.379.008.822.387.987.38.166.822-.008.988-.387z"/><path d="m16 8.25c-3.174 0-5.75 2.576-5.75 5.75s2.576 5.75 5.75 5.75 5.75-2.576 5.75-5.75-2.576-5.75-5.75-5.75zm0 1.5c2.346 0 4.25 1.904 4.25 4.25s-1.904 4.25-4.25 4.25-4.25-1.904-4.25-4.25 1.904-4.25 4.25-4.25z"/><path d="m27.25 16c0 6.209-5.041 11.25-11.25 11.25-4.895 0-9.063-3.132-10.609-7.5-.138-.39-.567-.595-.957-.457-.391.138-.595.567-.457.957 1.752 4.95 6.476 8.5 12.023 8.5 7.037 0 12.75-5.713 12.75-12.75 0-.414-.336-.75-.75-.75s-.75.336-.75.75z"/><path d="m4.75 16c0-6.209 5.041-11.25 11.25-11.25 4.895 0 9.063 3.132 10.609 7.5.138.39.567.595.957.457.391-.138.595-.567.457-.957-1.752-4.95-6.476-8.5-12.023-8.5-7.037 0-12.75 5.713-12.75 12.75 0 .414.336.75.75.75s.75-.336.75-.75z"/><path d="m1.47 14.53 2 2c.293.293.767.293 1.06 0l2-2c.293-.292.293-.768 0-1.06-.292-.293-.768-.293-1.06 0l-1.47 1.469s-1.47-1.469-1.47-1.469c-.292-.293-.768-.293-1.06 0-.293.292-.293.768 0 1.06z"/><path d="m26.53 18.53 1.47-1.469s1.47 1.469 1.47 1.469c.292.293.768.293 1.06 0 .293-.292.293-.768 0-1.06l-2-2c-.293-.293-.767-.293-1.06 0l-2 2c-.293.292-.293.768 0 1.06.292.293.768.293 1.06 0z"/></g></svg>