<?xml version="1.0" encoding="UTF-8"?>
<svg version="1.1" xmlns="http://www.w3.org/2000/svg" width="36" height="36">
<path d="M0 0 C0.73541016 0.00202423 1.47082031 0.00404846 2.22851562 0.00613403 C2.97939453 0.00517731 3.73027344 0.00422058 4.50390625 0.00323486 C6.09440189 0.00255315 7.6849003 0.00440682 9.27539062 0.00857544 C11.71816217 0.01392386 14.16074984 0.00863019 16.60351562 0.00222778 C18.1451827 0.00288857 19.68684966 0.00416973 21.22851562 0.00613403 C21.96392578 0.0041098 22.69933594 0.00208557 23.45703125 0 C28.61356402 0.02399493 28.61356402 0.02399493 29.72851562 1.13894653 C29.72851562 6.74894653 29.72851562 12.35894653 29.72851562 18.13894653 C17.84851562 18.13894653 5.96851562 18.13894653 -6.27148438 18.13894653 C-6.27148438 0.02918314 -6.27148438 0.02918314 0 0 Z M-4.27148438 3.13894653 C-4.27148438 7.42894653 -4.27148438 11.71894653 -4.27148438 16.13894653 C6.28851563 16.13894653 16.84851563 16.13894653 27.72851562 16.13894653 C27.72851562 11.84894653 27.72851562 7.55894653 27.72851562 3.13894653 C17.16851562 3.13894653 6.60851562 3.13894653 -4.27148438 3.13894653 Z " fill="#5490B0" transform="translate(6.271484375,15.861053466796875)"/>
<path d="M0 0 C0.66 0 1.32 0 2 0 C2.33 1.98 2.66 3.96 3 6 C4.32 5.67 5.64 5.34 7 5 C5.70700306 7.88437779 4.34058637 9.87219421 2 12 C-0.86697492 10.71480435 -2.97607712 9.42870746 -5 7 C-5 6.34 -5 5.68 -5 5 C-3.68 5.33 -2.36 5.66 -1 6 C-0.67 4.02 -0.34 2.04 0 0 Z " fill="#5490B0" transform="translate(17,3)"/>
<path d="M0 0 C1.4540625 0.0309375 1.4540625 0.0309375 2.9375 0.0625 C4.125 2.3125 4.125 2.3125 4.9375 5.0625 C3.5625 7.375 3.5625 7.375 1.9375 9.0625 C-2.8125 8.3125 -2.8125 8.3125 -5.0625 6.0625 C-4.33395709 0.0884481 -4.33395709 0.0884481 0 0 Z M-1.0625 2.0625 C-1.3925 3.3825 -1.7225 4.7025 -2.0625 6.0625 C-0.7425 6.0625 0.5775 6.0625 1.9375 6.0625 C1.6075 4.7425 1.2775 3.4225 0.9375 2.0625 C0.2775 2.0625 -0.3825 2.0625 -1.0625 2.0625 Z " fill="#528EB2" transform="translate(18.0625,20.9375)"/>
<path d="M0 0 C1.32 0 2.64 0 4 0 C4 0.66 4 1.32 4 2 C2.68 2 1.36 2 0 2 C0 1.34 0 0.68 0 0 Z " fill="#5490B1" transform="translate(26,24)"/>
<path d="M0 0 C1.32 0 2.64 0 4 0 C4 0.66 4 1.32 4 2 C2.68 2 1.36 2 0 2 C0 1.34 0 0.68 0 0 Z " fill="#5490B1" transform="translate(6,24)"/>
</svg>
