<svg height="512" viewBox="0 0 120 120" width="512" xmlns="http://www.w3.org/2000/svg"><g id="Layer_2" data-name="Layer 2"><g id="refund"><path id="refund-2" d="m120 60a59.8946 59.8946 0 1 1 -119.7891 0 4 4 0 0 1 8 0 51.9461 51.9461 0 1 0 5.3943-23.1045h8.3636a4 4 0 0 1 0 8h-17.9688a4 4 0 0 1 -4-4v-19.1045a4 4 0 0 1 8 0v8.6231a59.8747 59.8747 0 0 1 112 29.5859zm-64 19.5144v-15.8369c-9.1179-1.4866-16-7.9509-16-15.6775s6.8821-14.1909 16-15.6775v-4.3225a4 4 0 0 1 8 0v4.3225c9.1179 1.4866 16 7.9509 16 15.6775a4 4 0 0 1 -8 0c0-3.4058-3.3945-6.3873-8-7.5144v15.8369c9.1179 1.4866 16 7.9509 16 15.6775s-6.8821 14.1909-16 15.6775v4.3225a4 4 0 0 1 -8 0v-4.3225c-9.1179-1.4866-16-7.9509-16-15.6775a4 4 0 0 1 8 0c0 3.4058 3.3945 6.3873 8 7.5144zm8-15.0288v15.0288c4.6055-1.1271 8-4.1086 8-7.5144s-3.3945-6.3873-8-7.5144zm-8-8.9712v-15.0288c-4.6055 1.1271-8 4.1086-8 7.5144s3.3945 6.3873 8 7.5144z" data-name="refund"/></g></g></svg>